<svg xmlns="http://www.w3.org/2000/svg" viewBox="0 0 40 26.11"><g id="Camada_2" data-name="Camada 2"><g id="Camada_1-2" data-name="Camada 1"><path d="M5.44,2.66H8.72l1.2,4,1.21-4h3.29L12.21,8.89l.94,2.66L16,2.66h3.89l-4.92,13h-3.1L9.92,11,8,15.7H4.92L0,2.66H3.88L6.7,11.55l.9-2.66Z" transform="translate(0 -2.66)"/><path d="M20.75,15.7v-13h3.58v13Z" transform="translate(0 -2.66)"/><path d="M9.74,19.92a10.68,10.68,0,0,0-1.14-.6,9.08,9.08,0,0,0-1.12-.41,4.14,4.14,0,0,0-1.19-.18,1.62,1.62,0,0,0-.75.14.51.51,0,0,0-.3.49.61.61,0,0,0,.3.53,2.84,2.84,0,0,0,.83.36l1.3.4a12.61,12.61,0,0,1,2.09.84,3.66,3.66,0,0,1,1.36,1.21,3.55,3.55,0,0,1,.48,2,4,4,0,0,1-.43,1.95A3.47,3.47,0,0,1,10,27.88a5.09,5.09,0,0,1-1.6.68,7.77,7.77,0,0,1-1.8.21,10.39,10.39,0,0,1-2-.19,13.9,13.9,0,0,1-2-.53A11.29,11.29,0,0,1,1,27.25l1.55-3.14a12.8,12.8,0,0,0,1.34.71,9.56,9.56,0,0,0,1.35.5,5.07,5.07,0,0,0,1.49.22,1.6,1.6,0,0,0,.82-.15A.46.46,0,0,0,7.74,25a.66.66,0,0,0-.4-.6A6.45,6.45,0,0,0,6.28,24c-.43-.13-.92-.27-1.44-.45A8.08,8.08,0,0,1,3,22.69a3.18,3.18,0,0,1-1.08-1.15,3.45,3.45,0,0,1-.35-1.61,4.08,4.08,0,0,1,.68-2.41A4.23,4.23,0,0,1,4,16.05a5.67,5.67,0,0,1,2.4-.5,7.11,7.11,0,0,1,1.85.23,11.68,11.68,0,0,1,1.67.56c.52.22,1,.43,1.36.62Z" transform="translate(0 -2.66)"/><path d="M24.27,25.34a2.84,2.84,0,0,1-.63,1.91,3.72,3.72,0,0,1-1.7,1.08,7.62,7.62,0,0,1-2.35.35H13.18v-13h7.56a2.61,2.61,0,0,1,1.59.49,3.14,3.14,0,0,1,1,1.25,3.77,3.77,0,0,1,.36,1.6,3.62,3.62,0,0,1-.47,1.75A2.9,2.9,0,0,1,21.84,22a3.19,3.19,0,0,1,2.43,3.35Zm-7.51-6.65v2H19.2a1.44,1.44,0,0,0,.46-.08A.79.79,0,0,0,20,20.3a1.16,1.16,0,0,0,.14-.62,1.19,1.19,0,0,0-.12-.58.77.77,0,0,0-.31-.31.88.88,0,0,0-.43-.1Zm3.87,5.91a1.34,1.34,0,0,0-.12-.58,1,1,0,0,0-.32-.39.76.76,0,0,0-.48-.15H16.76v2.19h2.83a1.19,1.19,0,0,0,.53-.13.94.94,0,0,0,.37-.37A1,1,0,0,0,20.63,24.6Z" transform="translate(0 -2.66)"/><path d="M26.65,19.29a11.34,11.34,0,0,1,.16-2,4.32,4.32,0,0,1,.78-1.78A5.54,5.54,0,0,1,29.52,14c.27-.15.65-.34,1.15-.58a13.08,13.08,0,0,0,1.51-.86,5.69,5.69,0,0,0,1.29-1.13A2.11,2.11,0,0,0,34,10.06a1.62,1.62,0,0,0-.31-1,2,2,0,0,0-.8-.62,2.58,2.58,0,0,0-1.08-.22,2.31,2.31,0,0,0-1.43.42,3.55,3.55,0,0,0-.91,1c-.23.35-.45.64-.64.89l-4.4-3.13a7,7,0,0,1,1.74-2.53,8.05,8.05,0,0,1,2.64-1.6,9.16,9.16,0,0,1,3.26-.57,10.32,10.32,0,0,1,2.78.4,7.9,7.9,0,0,1,2.57,1.26,6.38,6.38,0,0,1,1.87,2.28A7.42,7.42,0,0,1,40,10.05a9.87,9.87,0,0,1-.14,1.66,5.52,5.52,0,0,1-.5,1.5,6,6,0,0,1-.9,1.33,8,8,0,0,1-1.37,1.18,14.51,14.51,0,0,1-2.16,1.22,12.8,12.8,0,0,0-1.88,1,1.55,1.55,0,0,0-.76,1.32Zm.11,9.42v-6H32.4v6Z" transform="translate(0 -2.66)"/></g></g></svg>