<svg xmlns="http://www.w3.org/2000/svg" viewBox="0 0 26.5 17.31"><defs><style>.cls-1{fill:#c33;}</style></defs><g id="Camada_2" data-name="Camada 2"><g id="Camada_1-2" data-name="Camada 1"><path class="cls-1" d="M3.55,1.74H5.7l.78,2.63.79-2.63H9.42L8,5.81l.61,1.74,1.84-5.81H13L9.76,10.26h-2l-1.25-3L5.24,10.26h-2L0,1.74H2.53L4.38,7.55,5,5.81Z" transform="translate(0 -1.74)"/><path class="cls-1" d="M13.56,10.26V1.74H15.9v8.52Z" transform="translate(0 -1.74)"/><path class="cls-1" d="M6.37,13.26a7.87,7.87,0,0,0-.75-.39,6.19,6.19,0,0,0-.73-.27,2.64,2.64,0,0,0-.78-.12,1,1,0,0,0-.49.1.32.32,0,0,0-.19.32.38.38,0,0,0,.19.34,2,2,0,0,0,.54.24l.85.26a7.37,7.37,0,0,1,1.37.55,2.45,2.45,0,0,1,.89.79,2.4,2.4,0,0,1,.31,1.28,2.63,2.63,0,0,1-.28,1.28,2.17,2.17,0,0,1-.74.82,3.09,3.09,0,0,1-1,.45,5.06,5.06,0,0,1-1.17.14,7.22,7.22,0,0,1-1.28-.13,8.19,8.19,0,0,1-1.29-.35,6.66,6.66,0,0,1-1.14-.52l1-2.05a9.82,9.82,0,0,0,.87.47,7.62,7.62,0,0,0,.89.32,3.25,3.25,0,0,0,1,.14,1.14,1.14,0,0,0,.54-.09.3.3,0,0,0,.15-.26.42.42,0,0,0-.27-.39,3.47,3.47,0,0,0-.69-.26l-.94-.29a5.57,5.57,0,0,1-1.22-.57,2,2,0,0,1-.71-.75A2.26,2.26,0,0,1,1,13.27a2.66,2.66,0,0,1,.45-1.58,2.76,2.76,0,0,1,1.17-1,3.85,3.85,0,0,1,1.56-.32,4.83,4.83,0,0,1,1.21.15,8.19,8.19,0,0,1,1.09.36c.34.15.64.28.89.41Z" transform="translate(0 -1.74)"/><path class="cls-1" d="M15.86,16.8a1.84,1.84,0,0,1-.42,1.25,2.35,2.35,0,0,1-1.11.71A4.91,4.91,0,0,1,12.8,19H8.61V10.47h4.94a1.73,1.73,0,0,1,1,.31,2.09,2.09,0,0,1,.67.83,2.37,2.37,0,0,1,.24,1,2.28,2.28,0,0,1-.31,1.14,1.92,1.92,0,0,1-.92.83,2.18,2.18,0,0,1,1.16.75A2.22,2.22,0,0,1,15.86,16.8ZM11,12.46v1.31h1.6a.8.8,0,0,0,.3-.06.5.5,0,0,0,.24-.2.74.74,0,0,0,.09-.4.69.69,0,0,0-.08-.38.58.58,0,0,0-.2-.21.64.64,0,0,0-.28-.06Zm2.53,3.86a.79.79,0,0,0-.08-.38.64.64,0,0,0-.21-.25.46.46,0,0,0-.31-.1H11V17H12.8a.7.7,0,0,0,.35-.09.56.56,0,0,0,.24-.24A.7.7,0,0,0,13.48,16.32Z" transform="translate(0 -1.74)"/><path class="cls-1" d="M17.65,12.74a6.88,6.88,0,0,1,.11-1.31,2.7,2.7,0,0,1,.52-1.18,3.65,3.65,0,0,1,1.27-1l.76-.38a9.47,9.47,0,0,0,1-.57,3.87,3.87,0,0,0,.85-.75,1.43,1.43,0,0,0,.35-.92,1.05,1.05,0,0,0-.2-.63,1.46,1.46,0,0,0-.53-.42,1.89,1.89,0,0,0-.72-.14,1.53,1.53,0,0,0-.95.28,2.24,2.24,0,0,0-.6.63l-.42.59L16.18,4.85a4.62,4.62,0,0,1,1.15-1.67,5.39,5.39,0,0,1,1.75-1.07,6.36,6.36,0,0,1,2.16-.37A7,7,0,0,1,23.09,2a5.4,5.4,0,0,1,1.7.84A4.12,4.12,0,0,1,26,4.35a5,5,0,0,1,.47,2.27,5.63,5.63,0,0,1-.1,1.1,3.7,3.7,0,0,1-.32,1,3.92,3.92,0,0,1-.6.88,5,5,0,0,1-.91.78,9.31,9.31,0,0,1-1.43.81,8.34,8.34,0,0,0-1.25.69,1,1,0,0,0-.5.87ZM17.72,19V15h3.74v4Z" transform="translate(0 -1.74)"/></g></g></svg>